<svg width="180" height="180" viewBox="0 0 180 180" fill="none" xmlns="http://www.w3.org/2000/svg">
<path d="M42 158C35.0894 158 29.1951 155.691 24.317 151.072C19.439 146.253 17 140.229 17 133C17 125.369 19.439 119.345 24.317 114.928C29.1951 110.309 35.0894 108 42 108C48.9106 108 54.8049 110.309 59.6829 114.928C64.561 119.345 67 125.369 67 133C67 140.229 64.561 146.253 59.6829 151.072C54.8049 155.691 48.9106 158 42 158Z" fill="#FF0303"/>
<path d="M42 158C35.0894 158 29.1951 155.691 24.317 151.072C19.439 146.253 17 140.229 17 133C17 125.369 19.439 119.345 24.317 114.928C29.1951 110.309 35.0894 108 42 108C48.9106 108 54.8049 110.309 59.6829 114.928C64.561 119.345 67 125.369 67 133C67 140.229 64.561 146.253 59.6829 151.072C54.8049 155.691 48.9106 158 42 158Z" fill="#FF0303"/>
<path d="M137.84 158.9C133.4 158.9 129.05 158.27 124.79 157.01C120.59 155.69 117.05 153.89 114.17 151.61L119.12 142.52C121.4 144.38 124.16 145.88 127.4 147.02C130.7 148.16 134.12 148.73 137.66 148.73C141.8 148.73 145.04 147.86 147.38 146.12C149.78 144.38 150.98 142.04 150.98 139.1C150.98 137.12 150.47 135.38 149.45 133.88C148.49 132.38 146.75 131.24 144.23 130.46C141.77 129.68 138.38 129.29 134.06 129.29H118.85L122.09 95H159.08V104.81H126.41L132.53 99.23L130.1 124.88L123.98 119.39H136.67C142.91 119.39 147.92 120.23 151.7 121.91C155.54 123.53 158.33 125.81 160.07 128.75C161.87 131.63 162.77 134.93 162.77 138.65C162.77 142.31 161.87 145.67 160.07 148.73C158.27 151.79 155.51 154.25 151.79 156.11C148.13 157.97 143.48 158.9 137.84 158.9Z" fill="black"/>
<path d="M39.76 87.9C35.32 87.9 30.97 87.27 26.71 86.01C22.51 84.69 18.97 82.89 16.09 80.61L21.13 71.52C23.41 73.38 26.17 74.88 29.41 76.02C32.65 77.16 36.04 77.73 39.58 77.73C43.78 77.73 47.05 76.89 49.39 75.21C51.73 73.47 52.9 71.13 52.9 68.19C52.9 65.31 51.82 63.03 49.66 61.35C47.5 59.67 44.02 58.83 39.22 58.83H33.46V50.82L51.46 29.4L52.99 33.81H19.15V24H62.08V31.83L44.08 53.25L37.96 49.65H41.47C49.21 49.65 55 51.39 58.84 54.87C62.74 58.29 64.69 62.7 64.69 68.1C64.69 71.64 63.79 74.91 61.99 77.91C60.19 80.91 57.43 83.34 53.71 85.2C50.05 87 45.4 87.9 39.76 87.9Z" fill="black"/>
<path d="M99.6128 87.9C93.9128 87.9 89.0228 86.7 84.9428 84.3C80.8628 81.84 77.7428 78.3 75.5828 73.68C73.4228 69.06 72.3428 63.36 72.3428 56.58C72.3428 49.38 73.6328 43.29 76.2128 38.31C78.8528 33.33 82.4828 29.55 87.1028 26.97C91.7828 24.39 97.1528 23.1 103.213 23.1C106.393 23.1 109.423 23.43 112.303 24.09C115.243 24.75 117.733 25.77 119.773 27.15L115.453 35.97C113.713 34.83 111.823 34.05 109.783 33.63C107.803 33.15 105.703 32.91 103.483 32.91C97.5428 32.91 92.8328 34.74 89.3528 38.4C85.8728 42.06 84.1328 47.46 84.1328 54.6C84.1328 55.74 84.1628 57.09 84.2228 58.65C84.2828 60.15 84.4928 61.68 84.8528 63.24L81.2528 59.28C82.3328 56.82 83.8028 54.78 85.6628 53.16C87.5828 51.48 89.8328 50.22 92.4128 49.38C95.0528 48.54 97.9028 48.12 100.963 48.12C105.103 48.12 108.793 48.93 112.033 50.55C115.273 52.11 117.853 54.36 119.773 57.3C121.693 60.18 122.653 63.57 122.653 67.47C122.653 71.61 121.633 75.21 119.593 78.27C117.553 81.33 114.793 83.7 111.313 85.38C107.833 87.06 103.933 87.9 99.6128 87.9ZM98.9828 78.72C101.383 78.72 103.513 78.3 105.373 77.46C107.233 76.56 108.673 75.3 109.693 73.68C110.773 72.06 111.313 70.17 111.313 68.01C111.313 64.71 110.173 62.1 107.893 60.18C105.613 58.26 102.553 57.3 98.7128 57.3C96.1928 57.3 93.9728 57.78 92.0528 58.74C90.1928 59.64 88.6928 60.9 87.5528 62.52C86.4728 64.14 85.9328 66 85.9328 68.1C85.9328 70.02 86.4428 71.79 87.4628 73.41C88.4828 75.03 89.9528 76.32 91.8728 77.28C93.8528 78.24 96.2228 78.72 98.9828 78.72Z" fill="black"/>
</svg>
