<svg width="32" height="32" viewBox="0 0 32 32" fill="none" xmlns="http://www.w3.org/2000/svg">
<g clip-path="url(#clip0_8_5)">
<rect width="32" height="32" fill="white"/>
<path d="M11 29C9.61789 29 8.43902 28.5382 7.46341 27.6145C6.4878 26.6506 6 25.4458 6 24C6 22.4739 6.4878 21.2691 7.46341 20.3855C8.43902 19.4618 9.61789 19 11 19C12.3821 19 13.561 19.4618 14.5366 20.3855C15.5122 21.2691 16 22.4739 16 24C16 25.4458 15.5122 26.6506 14.5366 27.6145C13.561 28.5382 12.3821 29 11 29Z" fill="#FF0303"/>
<path d="M11 29C9.61789 29 8.43902 28.5382 7.46341 27.6145C6.4878 26.6506 6 25.4458 6 24C6 22.4739 6.4878 21.2691 7.46341 20.3855C8.43902 19.4618 9.61789 19 11 19C12.3821 19 13.561 19.4618 14.5366 20.3855C15.5122 21.2691 16 22.4739 16 24C16 25.4458 15.5122 26.6506 14.5366 27.6145C13.561 28.5382 12.3821 29 11 29Z" fill="#FF0303"/>
<path d="M24.48 29.16C23.4933 29.16 22.5333 29.0067 21.6 28.7C20.68 28.3933 19.9267 27.98 19.34 27.46L20.26 25.88C20.7267 26.32 21.3333 26.68 22.08 26.96C22.8267 27.24 23.62 27.38 24.46 27.38C25.5267 27.38 26.3467 27.1533 26.92 26.7C27.4933 26.2467 27.78 25.64 27.78 24.88C27.78 24.36 27.6533 23.9067 27.4 23.52C27.1467 23.1333 26.7067 22.84 26.08 22.64C25.4667 22.4267 24.62 22.32 23.54 22.32H20.36L21.1 15H29V16.74H21.84L22.88 15.76L22.3 21.54L21.26 20.58H23.96C25.36 20.58 26.4867 20.76 27.34 21.12C28.1933 21.48 28.8133 21.98 29.2 22.62C29.5867 23.2467 29.78 23.9733 29.78 24.8C29.78 25.6 29.5867 26.3333 29.2 27C28.8133 27.6533 28.2267 28.18 27.44 28.58C26.6667 28.9667 25.68 29.16 24.48 29.16Z" fill="black"/>
<path d="M6.716 16.144C5.828 16.144 4.964 16.006 4.124 15.73C3.296 15.454 2.618 15.082 2.09 14.614L2.918 13.192C3.338 13.588 3.884 13.912 4.556 14.164C5.228 14.416 5.948 14.542 6.716 14.542C7.652 14.542 8.378 14.344 8.894 13.948C9.422 13.54 9.686 12.994 9.686 12.31C9.686 11.65 9.434 11.122 8.93 10.726C8.438 10.318 7.652 10.114 6.572 10.114H5.564V8.854L9.308 4.246L9.56 4.966H2.666V3.4H10.982V4.624L7.256 9.214L6.32 8.656H6.914C8.438 8.656 9.578 8.998 10.334 9.682C11.102 10.366 11.486 11.236 11.486 12.292C11.486 13 11.312 13.648 10.964 14.236C10.616 14.824 10.088 15.292 9.38 15.64C8.684 15.976 7.796 16.144 6.716 16.144ZM18.4568 16.144C17.3408 16.144 16.3868 15.898 15.5948 15.406C14.8028 14.914 14.1968 14.206 13.7768 13.282C13.3688 12.346 13.1648 11.206 13.1648 9.862C13.1648 8.434 13.4168 7.228 13.9208 6.244C14.4248 5.26 15.1268 4.516 16.0268 4.012C16.9268 3.508 17.9588 3.256 19.1228 3.256C19.7228 3.256 20.2928 3.316 20.8328 3.436C21.3848 3.556 21.8588 3.742 22.2548 3.994L21.5708 5.398C21.2468 5.17 20.8748 5.014 20.4548 4.93C20.0468 4.846 19.6148 4.804 19.1588 4.804C17.8748 4.804 16.8548 5.206 16.0988 6.01C15.3428 6.802 14.9648 7.984 14.9648 9.556C14.9648 9.808 14.9768 10.108 15.0008 10.456C15.0248 10.804 15.0848 11.146 15.1808 11.482L14.5688 10.87C14.7488 10.318 15.0308 9.856 15.4148 9.484C15.8108 9.1 16.2788 8.818 16.8188 8.638C17.3708 8.446 17.9648 8.35 18.6008 8.35C19.4408 8.35 20.1848 8.506 20.8328 8.818C21.4808 9.13 21.9908 9.574 22.3628 10.15C22.7348 10.714 22.9208 11.386 22.9208 12.166C22.9208 12.97 22.7228 13.672 22.3268 14.272C21.9308 14.872 21.3968 15.334 20.7248 15.658C20.0528 15.982 19.2968 16.144 18.4568 16.144ZM18.3848 14.686C18.9368 14.686 19.4168 14.584 19.8248 14.38C20.2448 14.176 20.5748 13.894 20.8148 13.534C21.0548 13.162 21.1748 12.73 21.1748 12.238C21.1748 11.494 20.9168 10.906 20.4008 10.474C19.8848 10.03 19.1828 9.808 18.2948 9.808C17.7188 9.808 17.2148 9.916 16.7828 10.132C16.3508 10.348 16.0088 10.642 15.7568 11.014C15.5168 11.374 15.3968 11.788 15.3968 12.256C15.3968 12.688 15.5108 13.09 15.7388 13.462C15.9668 13.822 16.3028 14.116 16.7468 14.344C17.1908 14.572 17.7368 14.686 18.3848 14.686Z" fill="black"/>
</g>
<defs>
<clipPath id="clip0_8_5">
<rect width="32" height="32" fill="white"/>
</clipPath>
</defs>
</svg>
