<svg width="32" height="32" viewBox="0 0 32 32" fill="none" xmlns="http://www.w3.org/2000/svg">
<path d="M20 29C17.5122 29 15.3902 28.1687 13.6341 26.506C11.878 24.7711 11 22.6024 11 20C11 17.253 11.878 15.0843 13.6341 13.494C15.3902 11.8313 17.5122 11 20 11C22.4878 11 24.6098 11.8313 26.3658 13.494C28.1219 15.0843 29 17.253 29 20C29 22.6024 28.1219 24.7711 26.3658 26.506C24.6098 28.1687 22.4878 29 20 29Z" fill="#FF0303"/>
<path d="M20 29C17.5122 29 15.3902 28.1687 13.6341 26.506C11.878 24.7711 11 22.6024 11 20C11 17.253 11.878 15.0843 13.6341 13.494C15.3902 11.8313 17.5122 11 20 11C22.4878 11 24.6098 11.8313 26.3658 13.494C28.1219 15.0843 29 17.253 29 20C29 22.6024 28.1219 24.7711 26.3658 26.506C24.6098 28.1687 22.4878 29 20 29Z" fill="#FF0303"/>
</svg>
